<svg xmlns="http://www.w3.org/2000/svg" xmlns:se="http://svg-edit.googlecode.com" xmlns:xlink="http://www.w3.org/1999/xlink" xmlns:dc="http://purl.org/dc/elements/1.1/" xmlns:cc="http://creativecommons.org/ns#" xmlns:rdf="http://www.w3.org/1999/02/22-rdf-syntax-ns#" xmlns:inkscape="http://www.inkscape.org/namespaces/inkscape" width="777" height="480">                                    <title>my vector image</title>                                    <!-- Created with Vector Paint - http://www.vectorpaint.yaks.com/ https://chrome.google.com/webstore/detail/hnbpdiengicdefcjecjbnjnoifekhgdo -->                                    <rect id="backgroundrect" width="100%" height="100%" x="0" y="0" fill="#FFFFFF" stroke="none"/>                                <g class="currentLayer" style=""><title>Layer 1</title><path fill="#4a90d6" fill-opacity="1" stroke="#222222" stroke-opacity="1" stroke-width="2" stroke-dasharray="none" stroke-linejoin="round" stroke-linecap="butt" stroke-dashoffset="" fill-rule="nonzero" opacity="1" marker-start="" marker-mid="" marker-end="" d="M207,231.5 C207,184.26243093922653 246.6049723756906,146 295.5,146 C344.39502762430936,146 384,184.26243093922653 384,231.5 C384,278.73756906077347 344.39502762430936,317 295.5,317 C246.6049723756906,317 207,278.73756906077347 207,231.5 Z" id="svg_1"/><polyline fill="none" stroke="#222222" stroke-width="2" stroke-linejoin="round" stroke-dashoffset="" fill-rule="nonzero" marker-start="" marker-mid="" marker-end="" id="svg_3" points="288.4126000654055,312.7244170290191 288.4126000654055,312.7244170290191 288.4126000654055,314.29922020227656 288.4126000654055,315.0866217889053 288.4126000654055,319.02362972204895 288.4126000654055,324.5354408284501 288.4126000654055,333.9842598679949 289.987403238663,345.00788208079723 291.56220641192044,355.24410270697075 291.56220641192044,362.3307169866294 292.34960799854923,367.0551265064018 293.1370095851779,372.5669376128029 294.71181275843537,378.0787487192041 297.0740175183216,389.10237093200635 298.6488206915791,393.03937886515007 298.6488206915791,393.8267804517788 299.43622227820777,394.61418203840753 " style="color: rgb(0, 0, 0);"/><polyline fill="none" stroke="#222222" stroke-width="2" stroke-linejoin="round" stroke-dashoffset="" fill-rule="nonzero" marker-start="" marker-mid="" marker-end="" id="svg_4" points="279.7511826124894,327.68504717496506 279.7511826124894,327.68504717496506 279.7511826124894,329.2598503482225 276.6015762659745,331.6220551081087 271.0897651595734,337.13386621450985 261.6409461200285,343.43307890753977 253.7669302537412,350.51969318719836 248.25511914734005,356.0315042935995 245.1055128008251,359.9685122267432 242.7433080409389,362.3307169866294 241.95590645431017,365.4803233331443 241.16850486768143,367.0551265064018 241.16850486768143,368.62992967965926 240.3811032810527,368.62992967965926 " style="color: rgb(0, 0, 0);"/><polyline fill="none" stroke="#222222" stroke-width="2" stroke-linejoin="round" stroke-dashoffset="" fill-rule="nonzero" marker-start="" marker-mid="" marker-end="" id="svg_5" points="293.1370095851779,331.6220551081087 293.1370095851779,332.40945669473746 293.9244111718067,332.40945669473746 294.71181275843537,333.1968582813662 295.49921434506416,333.1968582813662 300.22362386483655,334.77166145462365 312.82204925089627,341.0708741476535 326.99527781021357,347.3700868406834 342.7433095427882,354.456701120342 359.27874286199165,363.11811857325813 369.5149634881652,370.2047328529167 374.2393730079376,374.9291423726891 377.38897935445254,377.29134713257537 378.17638094108133,378.0787487192041 378.17638094108133,378.86615030583283 " style="color: rgb(0, 0, 0);"/><polyline fill="none" stroke="#222222" stroke-width="2" stroke-linejoin="round" stroke-dashoffset="" fill-rule="nonzero" marker-start="" marker-mid="" marker-end="" id="svg_6" points="301.01102545146523,393.03937886515007 300.22362386483655,394.61418203840753 296.28661593169284,396.97638679829373 290.77480482529177,401.7007963180661 284.4755921322618,407.21260742446725 280.5385841991182,411.9370169442397 276.6015762659745,416.6614264640121 274.23937150608833,419.81103281052697 271.8771667462021,423.74804074367074 270.3023635729446,426.8976470901856 266.3653556398009,430.8346550233294 264.00315087991476,433.1968597832156 263.21574929328597,434.771662956473 263.21574929328597,435.5590645431017 262.4283477066573,435.5590645431017 " style="color: rgb(0, 0, 0);"/><polyline fill="none" stroke="#222222" stroke-width="2" stroke-linejoin="round" stroke-dashoffset="" fill-rule="nonzero" marker-start="" marker-mid="" marker-end="" id="svg_7" points="303.3732302113515,396.188985211665 304.1606317979803,396.188985211665 304.94803338460895,396.188985211665 305.73543497123774,396.188985211665 308.88504131775267,398.5511899715512 317.54645877066866,403.2755994913236 329.3574825700997,408.7874105977247 348.2551206491894,421.38583598378443 354.55433334221925,425.3228439169282 372.66456983468015,437.1338677163592 381.32598728759626,442.6456788227603 385.26299522073987,445.7952851692753 386.05039680736866,445.7952851692753 385.26299522073987,445.7952851692753 385.26299522073987,444.22048199601784 " style="color: rgb(0, 0, 0);"/><polyline fill="none" stroke="#222222" stroke-width="2" stroke-linejoin="round" stroke-dashoffset="" fill-rule="nonzero" marker-start="" marker-mid="" marker-end="" id="svg_8" points="225.42047313510673,203.27559648762497 225.42047313510673,203.27559648762497 226.99527630836417,203.27559648762497 228.5700794816217,204.8503996608824 235.65669376128028,208.7874075940261 249.0425207339688,215.08662028705598 259.27874136014236,221.38583298008587 265.5779540531722,224.53543932660077 268.72756039968715,225.3228409132295 269.51496198631594,225.3228409132295 270.3023635729446,225.3228409132295 271.8771667462021,226.1102424998583 " style="color: rgb(0, 0, 0);"/><polyline fill="none" stroke="#222222" stroke-width="2" stroke-linejoin="round" stroke-dashoffset="" fill-rule="nonzero" marker-start="" marker-mid="" marker-end="" id="svg_9" points="291.56220641192044,221.38583298008587 292.34960799854923,221.38583298008587 292.34960799854923,220.59843139345708 293.9244111718067,219.81102980682834 297.0740175183216,217.44882504694218 308.88504131775267,210.36221076728356 324.6330730503273,201.70079331436744 341.16850636953075,192.25197427482266 352.1921285823331,186.7401631684215 356.1291365154767,183.59055682190657 356.1291365154767,185.95276158179277 " style="color: rgb(0, 0, 0);"/><polyline fill="none" stroke="#222222" stroke-width="2" stroke-linejoin="round" stroke-dashoffset="" fill-rule="nonzero" marker-start="" marker-mid="" marker-end="" id="svg_10" points="272.66456833283087,268.6299281778099 273.45196991945954,269.41732976443865 273.45196991945954,270.2047313510674 274.23937150608833,271.77953452432484 275.8141746793458,273.3543376975823 276.6015762659745,274.9291408708398 277.38897785260326,276.5039440440973 278.9637810258607,277.291345630726 279.7511826124894,278.8661488039835 281.32598578574687,280.44095197724096 282.90078895900433,282.0157551504984 283.6881905456331,282.80315673712715 285.2629937188906,284.3779599103846 287.62519847877684,285.9527630836421 288.4126000654055,286.7401646702708 289.2000016520343,286.7401646702708 291.56220641192044,285.16536149701335 297.0740175183216,280.44095197724096 304.94803338460895,271.77953452432484 313.60945083752506,263.1181170714088 320.6960651171837,256.03150279175014 323.84567146369864,250.51969168534907 323.84567146369864,248.94488851209155 325.4204746369561,245.79528216557665 325.4204746369561,245.00788057894792 326.2078762235848,245.00788057894792 " style="color: rgb(0, 0, 0);"/></g></svg>